<svg width="64" height="64" viewBox="0 0 64 64" fill="none" xmlns="http://www.w3.org/2000/svg">
<path d="M15.185 20.3225H11.0638V24.0725H15.185V20.3225Z" fill="#D90916"/>
<path d="M15.185 29.9389H11.0638V33.6889H15.185V29.9389Z" fill="#D90916"/>
<path d="M36 39.5551H19.3062V43.3051H36V39.5551Z" fill="white"/>
<path d="M15.185 39.5551H11.0638V43.3051H15.185V39.5551Z" fill="white"/>
<path d="M36 49.1713H19.3062V52.9213H36V49.1713Z" fill="white"/>
<path d="M15.185 49.1713H11.0638V52.9213H15.185V49.1713Z" fill="white"/>
<path d="M64 26.033C64 17.7951 57.7627 10.9877 49.7629 10.0824V0H0V64H53.688V44.782H49.821V41.9769C57.793 41.0452 64 34.2509 64 26.033ZM3.75 3.75H46.0129V9.24413H3.75V3.75ZM42.2039 60.25H3.75V12.9941H38.5911C36.0565 14.8179 34.0734 17.3612 32.9425 20.3226H19.3064V24.0726H32.0119C31.9333 24.7154 31.892 25.3694 31.892 26.033C31.892 27.3799 32.0596 28.6881 32.3735 29.939H19.3064V33.689H33.838C36.2685 38.1499 40.7534 41.3363 46.0127 41.9704V44.7821H42.2039V60.25ZM49.938 48.532V60.25H46.0129H45.954V48.532H49.938ZM47.946 38.337C41.1616 38.337 35.642 32.8175 35.642 26.033C35.642 19.2485 41.1615 13.729 47.946 13.729C54.7305 13.729 60.2501 19.2486 60.2501 26.033C60.25 32.8175 54.7305 38.337 47.946 38.337Z" fill="#D90916"/>
<path d="M51.7606 21.2598L46.8976 25.5439L44.8498 23.8786L42.4839 26.7881L46.9946 30.4561L54.2396 24.0736L51.7606 21.2598Z" fill="white"/>
</svg>
