<svg width="64" height="64" viewBox="0 0 64 64" fill="none" xmlns="http://www.w3.org/2000/svg">
<g clip-path="url(#clip0)">
<path d="M30.0142 33.7358C39.3149 33.7358 46.8823 26.1689 46.8823 16.8682C46.8823 7.56689 39.3149 0 30.0142 0C20.7129 0 13.146 7.56689 13.146 16.8682C13.146 19.4692 13.7383 21.9346 14.7944 24.1367L0 38.9311L7.95117 46.8823L22.7456 32.0879C24.9478 33.144 27.4131 33.7358 30.0142 33.7358ZM7.95117 41.5811L5.30127 38.9311L16.8413 27.3911C17.624 28.3691 18.5132 29.2583 19.4912 30.041L7.95117 41.5811ZM16.8945 16.8682C16.8945 9.63379 22.7798 3.74853 30.0142 3.74853C37.248 3.74853 43.1338 9.63379 43.1338 16.8682C43.1338 24.102 37.248 29.9873 30.0142 29.9873C22.7798 29.9873 16.8945 24.102 16.8945 16.8682Z" fill="white"/>
<path d="M60.1264 22.4907H48.8813V60.2251H45.0078V41.2329H33.7627V60.2251H30.0141V48.7295H18.769V60.2251H15.0205V63.9731H64V60.2251H60.1264V22.4907ZM26.2656 60.2251H22.5171V52.478H26.2656V60.2251ZM41.2593 60.2251H37.5112V44.9814H41.2593V60.2251ZM56.3779 60.2251H52.6299V26.2393H56.3779V60.2251Z" fill="#D90916"/>
</g>
<defs>
<clipPath id="clip0">
<rect width="64" height="64" fill="white"/>
</clipPath>
</defs>
</svg>
