<svg width="64" height="64" viewBox="0 0 64 64" fill="none" xmlns="http://www.w3.org/2000/svg">
<path d="M57.6612 54.2741C60.8076 52.426 62.4277 48.7792 61.69 45.2056C60.9522 41.6319 58.0204 38.925 54.3993 38.474V37.3332C54.3993 36.7441 53.9217 36.2666 53.3327 36.2666C52.7436 36.2666 52.2661 36.7441 52.2661 37.3332V38.474C48.6342 38.9266 45.6971 41.6481 44.9695 45.235C44.2419 48.8219 45.8863 52.4727 49.0546 54.3048C46.7949 55.3016 44.9205 57.0059 43.714 59.1609C42.0809 56.4477 39.5981 54.3493 36.6506 53.1912C40.4793 51.0707 42.3892 46.6289 41.294 42.3913C40.1989 38.1537 36.3762 35.1934 31.9995 35.1934C27.6228 35.1934 23.8001 38.1537 22.705 42.3913C21.6098 46.6289 23.5196 51.0707 27.3484 53.1912C24.4009 54.3493 21.9181 56.4477 20.285 59.1609C19.0785 57.0059 17.2041 55.3016 14.9444 54.3048C18.1127 52.4727 19.7571 48.8219 19.0295 45.235C18.3019 41.6482 15.3648 38.9267 11.7329 38.474V37.3332C11.7329 36.7441 11.2553 36.2666 10.6663 36.2666C10.0773 36.2666 9.59969 36.7441 9.59969 37.3332V38.474C5.9786 38.9248 3.04675 41.6319 2.30901 45.2056C1.57126 48.7794 3.19137 52.4261 6.33785 54.2741C3.22537 55.5592 0.894768 58.2283 0.0409008 61.4856C-0.0822231 62.0942 0.0759005 62.726 0.471147 63.2049C0.880769 63.7089 1.49614 64.001 2.14563 63.9996H61.8535C62.503 64.0009 63.1184 63.7089 63.528 63.2049C63.9232 62.726 64.0813 62.0942 63.9582 61.4856C63.1042 58.2283 60.7736 55.5592 57.6612 54.2741ZM46.9327 46.9331C46.9327 44.3447 48.492 42.0109 50.8836 41.0203C53.2751 40.0297 56.0278 40.5773 57.8582 42.4077C59.6885 44.238 60.2361 46.9908 59.2455 49.3822C58.2549 51.7737 55.9213 53.3331 53.3327 53.3331C49.7997 53.3292 46.9366 50.4661 46.9327 46.9331ZM24.5329 44.7998C24.5329 40.6761 27.8759 37.3332 31.9995 37.3332C36.1231 37.3332 39.4661 40.6762 39.4661 44.7998C39.4661 48.9234 36.1232 52.2663 31.9995 52.2663C27.8778 52.2617 24.5376 48.9216 24.5329 44.7998ZM4.26636 46.9331C4.26636 44.3447 5.8256 42.0109 8.21721 41.0203C10.6087 40.0297 13.3614 40.5773 15.1918 42.4077C17.0221 44.238 17.5697 46.9908 16.5791 49.3822C15.5885 51.7737 13.2549 53.3331 10.6663 53.3331C7.13334 53.3292 4.27024 50.4661 4.26636 46.9331ZM2.13151 61.9126C2.833 58.4788 6.78672 55.4663 10.5923 55.4663C14.5069 55.4663 18.3557 58.4985 19.0485 61.8694L2.13151 61.9126ZM21.4308 61.8663C22.2981 58.4023 27.0995 54.3997 31.9995 54.3997C36.8995 54.3997 41.7009 58.4023 42.5682 61.8663H21.4308ZM61.8534 61.8663H44.951C45.6453 58.4965 49.4931 55.4663 53.4067 55.4663C57.2124 55.4663 61.166 58.4788 61.8759 61.8554C61.87 61.8616 61.862 61.8655 61.8534 61.8663Z" fill="#D90916"/>
<path d="M9.59979 25.5996C9.59979 26.1887 10.0774 26.6662 10.6664 26.6662C11.2554 26.6662 11.733 26.1886 11.733 25.5996V22.3996C11.733 21.8105 11.2554 21.333 10.6664 21.333C10.0774 21.333 9.59979 21.8105 9.59979 22.3996V25.5996Z" fill="#292121"/>
<path d="M9.59979 33.0664C9.59979 33.6555 10.0774 34.133 10.6664 34.133C11.2554 34.133 11.733 33.6555 11.733 33.0664V29.8664C11.733 29.2773 11.2554 28.7998 10.6664 28.7998C10.0774 28.7998 9.59979 29.2774 9.59979 29.8664V33.0664Z" fill="#D90916"/>
<path d="M54.3993 22.3996C54.3993 21.8105 53.9217 21.333 53.3327 21.333C52.7436 21.333 52.2661 21.8106 52.2661 22.3996V25.5996C52.2661 26.1887 52.7437 26.6662 53.3327 26.6662C53.9218 26.6662 54.3993 26.1886 54.3993 25.5996V22.3996Z" fill="#292121"/>
<path d="M53.3327 28.7998C52.7436 28.7998 52.2661 29.2774 52.2661 29.8664V33.0664C52.2661 33.6555 52.7437 34.133 53.3327 34.133C53.9218 34.133 54.3993 33.6555 54.3993 33.0664V29.8664C54.3993 29.2774 53.9218 28.7998 53.3327 28.7998Z" fill="#D90916"/>
<path d="M31.9996 0C31.4105 0 30.933 0.477621 30.933 1.06662V2.18736C24.1264 2.71985 18.7197 8.12668 18.1871 14.9332H11.7331C10.5554 14.9344 9.60104 15.8889 9.59979 17.0666V18.1332C9.59979 18.7223 10.0774 19.1998 10.6664 19.1998C11.2554 19.1998 11.733 18.7222 11.733 18.1332V17.0666H18.187C18.7195 23.8732 24.1263 29.2799 30.9329 29.8125V31.9997C30.9329 32.5889 31.4105 33.0663 31.9995 33.0663C32.5885 33.0663 33.0661 32.5887 33.0661 31.9997V29.8124C39.8727 29.2799 45.2794 23.8731 45.812 17.0665H52.2659V18.1331C52.2659 18.7222 52.7436 19.1997 53.3326 19.1997C53.9217 19.1997 54.3992 18.7221 54.3992 18.1331V17.0665C54.3981 15.8887 53.4436 14.9344 52.2658 14.9331H45.8119C45.2794 8.12656 39.8725 2.71985 33.066 2.18723V1.06662C33.0662 0.477621 32.5887 0 31.9996 0ZM30.933 17.0665V21.2253C28.8405 20.794 27.2055 19.159 26.7742 17.0665H30.933ZM26.7742 14.9332C27.2055 12.8408 28.8405 11.2058 30.933 10.7744V14.9332H26.7742ZM33.0662 17.0665H37.2251C36.7937 19.159 35.1587 20.794 33.0662 21.2253V17.0665ZM33.0662 14.9332V10.7744C35.1587 11.2058 36.7937 12.8408 37.2251 14.9332H33.0662ZM30.933 4.32071V8.61843C27.6631 9.09517 25.095 11.6634 24.6182 14.9332H20.3205C20.8418 9.30217 25.3019 4.84208 30.933 4.32071ZM20.3205 17.0665H24.6182C25.0949 20.3363 27.6631 22.9044 30.933 23.3813V27.679C25.3019 27.1576 20.8418 22.6976 20.3205 17.0665ZM33.0662 27.679V23.3813C36.3361 22.9046 38.9042 20.3363 39.381 17.0665H43.6788C43.1575 22.6976 38.6973 27.1576 33.0662 27.679ZM43.6788 14.9332H39.381C38.9043 11.6634 36.3361 9.0953 33.0662 8.61843V4.32071C38.6973 4.84208 43.1575 9.30217 43.6788 14.9332Z" fill="#292121"/>
</svg>
